<mxfile host="app.diagrams.net" modified="2022-05-03T07:27:24.271Z" agent="5.0 (Macintosh; Intel Mac OS X 10_15_7) AppleWebKit/537.36 (KHTML, like Gecko) Chrome/100.0.4896.127 Safari/537.36" etag="Ct2uKQ6yOjAs9EEwZd1T" version="17.5.0" type="github">
  <diagram name="Page-1" id="5f0bae14-7c28-e335-631c-24af17079c00">
    <mxGraphModel dx="1299" dy="835" grid="1" gridSize="10" guides="1" tooltips="1" connect="1" arrows="1" fold="1" page="1" pageScale="1" pageWidth="1100" pageHeight="850" background="none" math="0" shadow="0">
      <root>
        <mxCell id="0" />
        <mxCell id="1" parent="0" />
        <mxCell id="EYMjzIE0AaHJpzCtMACF-12" value="" style="rounded=0;whiteSpace=wrap;html=1;" parent="1" vertex="1">
          <mxGeometry x="190.46" y="20" width="869.54" height="600" as="geometry" />
        </mxCell>
        <mxCell id="EYMjzIE0AaHJpzCtMACF-36" value="" style="rounded=0;whiteSpace=wrap;html=1;strokeWidth=1;" parent="1" vertex="1">
          <mxGeometry x="420" y="100" width="620" height="430" as="geometry" />
        </mxCell>
        <mxCell id="EYMjzIE0AaHJpzCtMACF-6" style="rounded=0;orthogonalLoop=1;jettySize=auto;html=1;entryX=0;entryY=0.5;entryDx=0;entryDy=0;exitX=1;exitY=0.5;exitDx=0;exitDy=0;" parent="1" source="EYMjzIE0AaHJpzCtMACF-1" target="EYMjzIE0AaHJpzCtMACF-4" edge="1">
          <mxGeometry relative="1" as="geometry" />
        </mxCell>
        <mxCell id="EYMjzIE0AaHJpzCtMACF-7" style="edgeStyle=none;rounded=0;orthogonalLoop=1;jettySize=auto;html=1;exitX=1;exitY=0.5;exitDx=0;exitDy=0;entryX=0;entryY=0.5;entryDx=0;entryDy=0;" parent="1" source="EYMjzIE0AaHJpzCtMACF-1" target="EYMjzIE0AaHJpzCtMACF-5" edge="1">
          <mxGeometry relative="1" as="geometry" />
        </mxCell>
        <mxCell id="EYMjzIE0AaHJpzCtMACF-14" style="edgeStyle=none;rounded=0;orthogonalLoop=1;jettySize=auto;html=1;entryX=0.5;entryY=0;entryDx=0;entryDy=0;startArrow=classic;startFill=1;" parent="1" source="EYMjzIE0AaHJpzCtMACF-1" target="EYMjzIE0AaHJpzCtMACF-3" edge="1">
          <mxGeometry relative="1" as="geometry" />
        </mxCell>
        <mxCell id="EYMjzIE0AaHJpzCtMACF-16" style="edgeStyle=none;rounded=0;orthogonalLoop=1;jettySize=auto;html=1;exitX=1;exitY=0.5;exitDx=0;exitDy=0;entryX=0;entryY=0.5;entryDx=0;entryDy=0;startArrow=none;startFill=0;" parent="1" source="EYMjzIE0AaHJpzCtMACF-1" target="EYMjzIE0AaHJpzCtMACF-15" edge="1">
          <mxGeometry relative="1" as="geometry" />
        </mxCell>
        <mxCell id="EYMjzIE0AaHJpzCtMACF-1" value="API Gateway" style="rounded=0;whiteSpace=wrap;html=1;" parent="1" vertex="1">
          <mxGeometry x="220" y="300" width="120" height="60" as="geometry" />
        </mxCell>
        <mxCell id="EYMjzIE0AaHJpzCtMACF-3" value="&lt;br&gt;&lt;br&gt;&lt;br&gt;Auth Server" style="rounded=0;whiteSpace=wrap;html=1;" parent="1" vertex="1">
          <mxGeometry x="225" y="420" width="110" height="110" as="geometry" />
        </mxCell>
        <mxCell id="svkhXpvsn2GN4K9KMqcU-12" style="edgeStyle=none;rounded=0;orthogonalLoop=1;jettySize=auto;html=1;entryX=0;entryY=0.5;entryDx=0;entryDy=0;startArrow=classic;startFill=1;" edge="1" parent="1" source="EYMjzIE0AaHJpzCtMACF-4" target="svkhXpvsn2GN4K9KMqcU-11">
          <mxGeometry relative="1" as="geometry" />
        </mxCell>
        <mxCell id="EYMjzIE0AaHJpzCtMACF-4" value="Person Service" style="rounded=0;whiteSpace=wrap;html=1;" parent="1" vertex="1">
          <mxGeometry x="499.54" y="180" width="120" height="60" as="geometry" />
        </mxCell>
        <mxCell id="EYMjzIE0AaHJpzCtMACF-5" value="Location Service" style="rounded=0;whiteSpace=wrap;html=1;" parent="1" vertex="1">
          <mxGeometry x="499.54" y="355" width="120" height="60" as="geometry" />
        </mxCell>
        <mxCell id="EYMjzIE0AaHJpzCtMACF-25" style="edgeStyle=none;rounded=0;orthogonalLoop=1;jettySize=auto;html=1;entryX=0;entryY=0.5;entryDx=0;entryDy=0;startArrow=none;startFill=0;" parent="1" source="EYMjzIE0AaHJpzCtMACF-15" target="EYMjzIE0AaHJpzCtMACF-24" edge="1">
          <mxGeometry relative="1" as="geometry" />
        </mxCell>
        <mxCell id="svkhXpvsn2GN4K9KMqcU-2" style="edgeStyle=none;rounded=0;orthogonalLoop=1;jettySize=auto;html=1;entryX=0;entryY=0.5;entryDx=0;entryDy=0;startArrow=none;startFill=0;" edge="1" parent="1" target="svkhXpvsn2GN4K9KMqcU-1">
          <mxGeometry relative="1" as="geometry">
            <mxPoint x="620" y="300" as="sourcePoint" />
          </mxGeometry>
        </mxCell>
        <mxCell id="EYMjzIE0AaHJpzCtMACF-15" value="Event Service" style="rounded=0;whiteSpace=wrap;html=1;" parent="1" vertex="1">
          <mxGeometry x="499.54" y="270" width="120" height="60" as="geometry" />
        </mxCell>
        <mxCell id="EYMjzIE0AaHJpzCtMACF-17" value="" style="shape=image;verticalLabelPosition=bottom;labelBackgroundColor=default;verticalAlign=top;aspect=fixed;imageAspect=0;image=https://upload.wikimedia.org/wikipedia/de/thumb/4/4b/Postgresql.svg/1200px-Postgresql.svg.png;" parent="1" vertex="1">
          <mxGeometry x="600.0000000000001" y="260" width="29.08" height="30" as="geometry" />
        </mxCell>
        <mxCell id="EYMjzIE0AaHJpzCtMACF-18" value="" style="shape=image;verticalLabelPosition=bottom;labelBackgroundColor=default;verticalAlign=top;aspect=fixed;imageAspect=0;image=https://upload.wikimedia.org/wikipedia/de/thumb/4/4b/Postgresql.svg/1200px-Postgresql.svg.png;" parent="1" vertex="1">
          <mxGeometry x="600" y="170" width="29.08" height="30" as="geometry" />
        </mxCell>
        <mxCell id="EYMjzIE0AaHJpzCtMACF-19" value="" style="shape=image;verticalLabelPosition=bottom;labelBackgroundColor=default;verticalAlign=top;aspect=fixed;imageAspect=0;image=https://upload.wikimedia.org/wikipedia/de/thumb/4/4b/Postgresql.svg/1200px-Postgresql.svg.png;" parent="1" vertex="1">
          <mxGeometry x="600" y="350" width="29.08" height="30" as="geometry" />
        </mxCell>
        <mxCell id="EYMjzIE0AaHJpzCtMACF-20" value="" style="shape=image;verticalLabelPosition=bottom;labelBackgroundColor=default;verticalAlign=top;aspect=fixed;imageAspect=0;image=https://blog.consdata.tech/assets/img/posts/2020-02-01-keycloak-uwierzytelnianie-autoryzacja-springboot-angular/Keycloak.png;" parent="1" vertex="1">
          <mxGeometry x="230.05" y="425" width="97.4" height="65" as="geometry" />
        </mxCell>
        <mxCell id="EYMjzIE0AaHJpzCtMACF-23" value="" style="shape=image;verticalLabelPosition=bottom;labelBackgroundColor=default;verticalAlign=top;aspect=fixed;imageAspect=0;image=https://blog.consdata.tech/assets/img/posts/2018-11-15-czy-apache-kafka-nadaje-sie-do-event-sourcingu/kafka-apache.png;" parent="1" vertex="1">
          <mxGeometry x="920" y="445" width="89.92" height="60" as="geometry" />
        </mxCell>
        <mxCell id="EYMjzIE0AaHJpzCtMACF-24" value="Notification Service" style="rounded=0;whiteSpace=wrap;html=1;" parent="1" vertex="1">
          <mxGeometry x="720" y="270" width="120" height="60" as="geometry" />
        </mxCell>
        <mxCell id="EYMjzIE0AaHJpzCtMACF-27" value="" style="shape=message;html=1;whiteSpace=wrap;html=1;outlineConnect=0;strokeWidth=3;" parent="1" vertex="1">
          <mxGeometry x="820" y="260" width="30" height="20" as="geometry" />
        </mxCell>
        <mxCell id="EYMjzIE0AaHJpzCtMACF-28" style="edgeStyle=none;rounded=0;orthogonalLoop=1;jettySize=auto;html=1;exitX=0.5;exitY=1;exitDx=0;exitDy=0;startArrow=none;startFill=0;" parent="1" source="EYMjzIE0AaHJpzCtMACF-17" target="EYMjzIE0AaHJpzCtMACF-17" edge="1">
          <mxGeometry relative="1" as="geometry" />
        </mxCell>
        <mxCell id="EYMjzIE0AaHJpzCtMACF-35" style="edgeStyle=none;rounded=0;orthogonalLoop=1;jettySize=auto;html=1;entryX=0;entryY=0.5;entryDx=0;entryDy=0;startArrow=none;startFill=0;" parent="1" source="EYMjzIE0AaHJpzCtMACF-29" target="EYMjzIE0AaHJpzCtMACF-1" edge="1">
          <mxGeometry relative="1" as="geometry" />
        </mxCell>
        <mxCell id="EYMjzIE0AaHJpzCtMACF-29" value="Phone" style="strokeColor=#dddddd;shadow=1;strokeWidth=1;rounded=1;absoluteArcSize=1;arcSize=2;labelPosition=center;verticalLabelPosition=middle;align=center;verticalAlign=bottom;spacingLeft=0;fontColor=#999999;fontSize=12;whiteSpace=wrap;spacingBottom=2;" parent="1" vertex="1">
          <mxGeometry x="80" y="200" width="70" height="85" as="geometry" />
        </mxCell>
        <mxCell id="EYMjzIE0AaHJpzCtMACF-30" value="" style="sketch=0;dashed=0;connectable=0;html=1;fillColor=#757575;strokeColor=none;shape=mxgraph.gcp2.phone;part=1;" parent="EYMjzIE0AaHJpzCtMACF-29" vertex="1">
          <mxGeometry x="0.5" width="32" height="50" relative="1" as="geometry">
            <mxPoint x="-16" y="10" as="offset" />
          </mxGeometry>
        </mxCell>
        <mxCell id="EYMjzIE0AaHJpzCtMACF-34" style="edgeStyle=none;rounded=0;orthogonalLoop=1;jettySize=auto;html=1;entryX=0;entryY=0.5;entryDx=0;entryDy=0;startArrow=none;startFill=0;" parent="1" source="EYMjzIE0AaHJpzCtMACF-32" target="EYMjzIE0AaHJpzCtMACF-1" edge="1">
          <mxGeometry relative="1" as="geometry" />
        </mxCell>
        <mxCell id="EYMjzIE0AaHJpzCtMACF-32" value="Laptop" style="strokeColor=#dddddd;shadow=1;strokeWidth=1;rounded=1;absoluteArcSize=1;arcSize=2;labelPosition=center;verticalLabelPosition=middle;align=center;verticalAlign=bottom;spacingLeft=0;fontColor=#999999;fontSize=12;whiteSpace=wrap;spacingBottom=2;" parent="1" vertex="1">
          <mxGeometry x="80" y="353" width="70" height="85" as="geometry" />
        </mxCell>
        <mxCell id="EYMjzIE0AaHJpzCtMACF-33" value="" style="sketch=0;dashed=0;connectable=0;html=1;fillColor=#757575;strokeColor=none;shape=mxgraph.gcp2.laptop;part=1;" parent="EYMjzIE0AaHJpzCtMACF-32" vertex="1">
          <mxGeometry x="0.5" width="50" height="33" relative="1" as="geometry">
            <mxPoint x="-25" y="18.5" as="offset" />
          </mxGeometry>
        </mxCell>
        <mxCell id="EYMjzIE0AaHJpzCtMACF-37" value="" style="shape=image;verticalLabelPosition=bottom;labelBackgroundColor=default;verticalAlign=top;aspect=fixed;imageAspect=0;image=https://upload.wikimedia.org/wikipedia/commons/thumb/9/93/Amazon_Web_Services_Logo.svg/2880px-Amazon_Web_Services_Logo.svg.png;" parent="1" vertex="1">
          <mxGeometry x="960" y="561.96" width="80" height="47.85" as="geometry" />
        </mxCell>
        <mxCell id="svkhXpvsn2GN4K9KMqcU-1" value="Rating Service" style="rounded=0;whiteSpace=wrap;html=1;" vertex="1" parent="1">
          <mxGeometry x="720" y="370" width="120" height="60" as="geometry" />
        </mxCell>
        <mxCell id="svkhXpvsn2GN4K9KMqcU-5" value="" style="shape=image;verticalLabelPosition=bottom;labelBackgroundColor=default;verticalAlign=top;aspect=fixed;imageAspect=0;image=https://www.freebsdnews.com/wp-content/uploads/mongodb.png;" vertex="1" parent="1">
          <mxGeometry x="806.72" y="353" width="33.28" height="39" as="geometry" />
        </mxCell>
        <mxCell id="svkhXpvsn2GN4K9KMqcU-8" value="News Feed Service" style="rounded=0;whiteSpace=wrap;html=1;" vertex="1" parent="1">
          <mxGeometry x="499.54" y="438" width="120" height="60" as="geometry" />
        </mxCell>
        <mxCell id="svkhXpvsn2GN4K9KMqcU-9" style="edgeStyle=none;rounded=0;orthogonalLoop=1;jettySize=auto;html=1;entryX=0;entryY=0.5;entryDx=0;entryDy=0;" edge="1" parent="1" target="svkhXpvsn2GN4K9KMqcU-8">
          <mxGeometry relative="1" as="geometry">
            <mxPoint x="340" y="330" as="sourcePoint" />
            <mxPoint x="509.53999999999996" y="395" as="targetPoint" />
          </mxGeometry>
        </mxCell>
        <mxCell id="svkhXpvsn2GN4K9KMqcU-10" value="" style="shape=image;html=1;verticalAlign=top;verticalLabelPosition=bottom;labelBackgroundColor=#ffffff;imageAspect=0;aspect=fixed;image=https://cdn2.iconfinder.com/data/icons/essential-web-4/50/announce-megaphone-news-notification-marketing-128.png;strokeWidth=1;imageBackground=default;" vertex="1" parent="1">
          <mxGeometry x="600" y="425" width="28" height="28" as="geometry" />
        </mxCell>
        <mxCell id="svkhXpvsn2GN4K9KMqcU-11" value="Verification Service" style="rounded=0;whiteSpace=wrap;html=1;" vertex="1" parent="1">
          <mxGeometry x="720" y="180" width="120" height="60" as="geometry" />
        </mxCell>
        <mxCell id="svkhXpvsn2GN4K9KMqcU-14" value="" style="shape=image;html=1;verticalAlign=top;verticalLabelPosition=bottom;labelBackgroundColor=#ffffff;imageAspect=0;aspect=fixed;image=https://cdn1.iconfinder.com/data/icons/smartphone-signal-5g-trading/64/Smartphone_Failed_Verification-128.png;strokeWidth=1;" vertex="1" parent="1">
          <mxGeometry x="820" y="160" width="40" height="40" as="geometry" />
        </mxCell>
      </root>
    </mxGraphModel>
  </diagram>
</mxfile>
